<svg xmlns="http://www.w3.org/2000/svg" xmlns:xlink="http://www.w3.org/1999/xlink" viewBox="0 0 48 48"><radialGradient id="qc9XrLlNy~fm2~as2ZuuIa" cx="30.599" cy="42.338" r="5.614" gradientTransform="matrix(.8731 .4875 .592 -1.0601 -10.16 68.198)" gradientUnits="userSpaceOnUse"><stop offset="0" stop-color="#aa8765"/><stop offset=".089" stop-color="#a17c57"/><stop offset=".27" stop-color="#926941"/><stop offset=".385" stop-color="#8c6239"/><stop offset=".516" stop-color="#875d34"/><stop offset=".68" stop-color="#774e27"/><stop offset=".848" stop-color="#603813"/></radialGradient><path fill="url(#qc9XrLlNy~fm2~as2ZuuIa)" d="M40.817,29.029c0,0-1.19,4.871,1.041,6.578c1.94,1.483,0.325,1.893-0.258,1.943c-0.717,0.061-1.007,0.035-2.192-0.28c0.409,1.041,0.911,1.504,1.421,1.885c0.889,0.664,0.145,1.184-0.644,1.114s-1.955-0.594-2.227-0.827c0.072,0.592,0.329,0.992,0.552,1.305c0.223,0.313-0.096,0.954-0.87,0.717c-0.449-0.137-0.952-0.462-1.597-1.085c-0.018,0.375-0.287,1.068-0.63,1.073c-0.911,0.012-1.76-0.956-2.078-1.316c0.99-1.71,6.587-11.394,6.587-11.394L40.817,29.029z"/><radialGradient id="qc9XrLlNy~fm2~as2ZuuIb" cx="-33.083" cy="36.622" r="5.614" gradientTransform="matrix(-.8731 .4875 -.592 -1.0601 -.39 93.186)" gradientUnits="userSpaceOnUse"><stop offset="0" stop-color="#aa8765"/><stop offset=".089" stop-color="#a17c57"/><stop offset=".27" stop-color="#926941"/><stop offset=".385" stop-color="#8c6239"/><stop offset=".516" stop-color="#875d34"/><stop offset=".68" stop-color="#774e27"/><stop offset=".848" stop-color="#603813"/></radialGradient><path fill="url(#qc9XrLlNy~fm2~as2ZuuIb)" d="M7.616,29.029c0,0,1.19,4.871-1.041,6.578c-1.94,1.483-0.325,1.893,0.258,1.943c0.717,0.061,1.007,0.035,2.192-0.28c-0.409,1.041-0.911,1.504-1.421,1.885c-0.889,0.664-0.145,1.184,0.644,1.114s1.955-0.594,2.227-0.827c-0.072,0.592-0.329,0.992-0.552,1.305s0.096,0.954,0.87,0.717c0.449-0.137,0.952-0.462,1.597-1.085c0.018,0.375,0.287,1.068,0.63,1.073c0.911,0.012,1.76-0.956,2.078-1.316c-0.99-1.71-6.587-11.394-6.587-11.394L7.616,29.029z"/><radialGradient id="qc9XrLlNy~fm2~as2ZuuIc" cx="62.173" cy="29.101" r="2.371" gradientTransform="matrix(.9227 .1748 -.4139 2.1652 -6.113 -45.316)" gradientUnits="userSpaceOnUse"><stop offset="0" stop-color="#ffe16e"/><stop offset=".461" stop-color="#ffd226"/><stop offset=".741" stop-color="#f8c21d"/><stop offset=".999" stop-color="#f0af13"/></radialGradient><path fill="url(#qc9XrLlNy~fm2~as2ZuuIc)" d="M38.442,25.118c1.015-0.309,3.467-0.112,3.552,2.722c0.08,2.679-0.62,3.9-1.55,5.051c-1.043,1.29-2.919,1.281-2.765,0.256C37.833,32.12,38.442,25.118,38.442,25.118z"/><radialGradient id="qc9XrLlNy~fm2~as2ZuuId" cx="-557.902" cy="29.101" r="2.371" gradientTransform="matrix(-.9179 .1748 .4118 2.1652 -515.31 63.05)" gradientUnits="userSpaceOnUse"><stop offset="0" stop-color="#ffe16e"/><stop offset=".461" stop-color="#ffd226"/><stop offset=".741" stop-color="#f8c21d"/><stop offset=".999" stop-color="#f0af13"/></radialGradient><path fill="url(#qc9XrLlNy~fm2~as2ZuuId)" d="M9.54,25.118c-1.01-0.309-3.449-0.112-3.533,2.722c-0.08,2.679,0.617,3.9,1.542,5.051c1.038,1.29,2.904,1.281,2.75,0.256C10.145,32.12,9.54,25.118,9.54,25.118z"/><radialGradient id="qc9XrLlNy~fm2~as2ZuuIe" cx="31.366" cy="27.527" r="18.583" fx="31.268" fy="19.566" gradientTransform="matrix(.8804 0 0 1.0707 -3.458 -3.64)" gradientUnits="userSpaceOnUse"><stop offset="0" stop-color="#ffe16e"/><stop offset=".629" stop-color="#ffd226"/><stop offset=".75" stop-color="#fdcd23"/><stop offset=".899" stop-color="#f6bd1b"/><stop offset=".999" stop-color="#f0af13"/></radialGradient><path fill="url(#qc9XrLlNy~fm2~as2ZuuIe)" d="M40.289,25.288c0,3.676-0.831,7.116-2.277,10.057C35.194,41.074,30.043,46,24.155,46c-5.888,0-11.039-4.926-13.857-10.655c-1.446-2.941-2.277-6.381-2.277-10.057c0-0.807,0.022-1.57,0.065-2.293c0.246-4.161,1.186-7.029,2.644-9.682c2.893-5.267,7.826-7.646,13.426-7.646c5.569,0,10.479,2.342,13.379,7.561C39.273,16.359,40.289,19.837,40.289,25.288z"/><radialGradient id="qc9XrLlNy~fm2~as2ZuuIf" cx="-7.567" cy="36.534" r="2.511" gradientTransform="translate(34.012 -15.377) scale(1.3195)" gradientUnits="userSpaceOnUse"><stop offset=".696" stop-color="#cc9000"/><stop offset="1" stop-color="#cc9000" stop-opacity="0"/></radialGradient><path fill="url(#qc9XrLlNy~fm2~as2ZuuIf)" d="M24.003,33.83c-1.114,0-2.022-0.294-2.582-0.613c-0.412-0.235-0.829-0.127-0.556,0.609C21.235,34.824,22.079,36,24.003,36c1.892,0,2.74-1.136,3.119-2.123c0.291-0.758-0.129-0.834-0.487-0.66C25.944,33.552,25.091,33.83,24.003,33.83z"/><radialGradient id="qc9XrLlNy~fm2~as2ZuuIg" cx="-44.406" cy="59.586" r="3.799" gradientTransform="translate(72.511 -25.98) scale(1.0927)" gradientUnits="userSpaceOnUse"><stop offset=".696" stop-color="#cc9000"/><stop offset=".78" stop-color="#d39806" stop-opacity=".724"/><stop offset=".912" stop-color="#e7af18" stop-opacity=".288"/><stop offset="1" stop-color="#f8c226" stop-opacity="0"/></radialGradient><path fill="url(#qc9XrLlNy~fm2~as2ZuuIg)" d="M23.951,40.813c-4.158,0-4.299-2.43-4.299-2.43s0.102,4.86,4.299,4.86s4.299-4.86,4.299-4.86S28.109,40.813,23.951,40.813z"/><radialGradient id="qc9XrLlNy~fm2~as2ZuuIh" cx="33.148" cy="38.363" r="5.86" fx="33.144" fy="38.583" gradientTransform="matrix(.7909 0 0 .4766 -2.218 19.912)" gradientUnits="userSpaceOnUse"><stop offset=".371" stop-color="#ffd226"/><stop offset=".948" stop-color="#ffe16e"/><stop offset="1" stop-color="#ffe16e" stop-opacity="0"/></radialGradient><path fill="url(#qc9XrLlNy~fm2~as2ZuuIh)" d="M28.562,38c0,0,0.058,3-4.564,3s-4.564-3-4.564-3s1.014,0.914,4.564,0.914S28.562,38,28.562,38z"/><radialGradient id="qc9XrLlNy~fm2~as2ZuuIi" cx="9.69" cy="35.95" r="4.691" gradientTransform="matrix(.8333 0 0 .6703 15.987 13.826)" gradientUnits="userSpaceOnUse"><stop offset="0" stop-color="#1c1911"/><stop offset=".999" stop-color="#171714"/></radialGradient><path fill="url(#qc9XrLlNy~fm2~as2ZuuIi)" d="M19.75,38c-0.249,0-0.394,0.209-0.271,0.377C20.39,39.623,22.477,40,23.999,40c1.654,0,3.609-0.377,4.519-1.623C28.641,38.209,28.496,38,28.247,38C25.031,38,23.031,38,19.75,38z"/><radialGradient id="qc9XrLlNy~fm2~as2ZuuIj" cx="-67.317" cy="26.833" r="2.237" gradientTransform="matrix(1.4549 0 .0041 .8212 121.863 9.954)" gradientUnits="userSpaceOnUse"><stop offset=".479" stop-color="#fed53f"/><stop offset=".926" stop-color="#fed53f" stop-opacity=".141"/><stop offset="1" stop-color="#fed53f" stop-opacity="0"/></radialGradient><path fill="url(#qc9XrLlNy~fm2~as2ZuuIj)" d="M27.485,32.073c-0.027,1.111-1.61,1.974-3.535,1.927c-1.925-0.047-3.464-0.985-3.437-2.096c0.027-1.111,1.61-1.974,3.535-1.927S27.512,30.962,27.485,32.073z"/><radialGradient id="qc9XrLlNy~fm2~as2ZuuIk" cx="23.999" cy="33.452" r="1.793" gradientTransform="matrix(1 0 0 .5578 0 13.342)" gradientUnits="userSpaceOnUse"><stop offset=".004" stop-color="#fff4c9"/><stop offset="1" stop-color="#fff4c9" stop-opacity="0"/></radialGradient><ellipse cx="23.999" cy="32" fill="url(#qc9XrLlNy~fm2~as2ZuuIk)" rx="1.793" ry="1"/><path fill="#805b2a" d="M12.005,27.542c-0.029,0.438,0.069,0.401,0.246,0.62c0,0,2.001,2.631,8.038,0.83c0.436-0.148,0.751-0.43,0.706-0.769C20.221,22.393,13,23.102,12.005,27.542z"/><path fill="#fff" d="M12.096,27.484c-0.151,0.309-0.103,0.557,0,0.806c0.43,1.087,3.887,4.957,8.551,0.894c0.348-0.287,0.403-0.54,0.317-0.898C20.878,27.928,19.669,25,16.503,25C13.368,25,12.358,27.063,12.096,27.484z"/><linearGradient id="qc9XrLlNy~fm2~as2ZuuIl" x1="14" x2="19" y1="27.5" y2="27.5" gradientUnits="userSpaceOnUse"><stop offset="0" stop-color="#c69c6d"/><stop offset="1" stop-color="#754c24"/></linearGradient><circle cx="16.5" cy="27.5" r="2.5" fill="url(#qc9XrLlNy~fm2~as2ZuuIl)"/><radialGradient id="qc9XrLlNy~fm2~as2ZuuIm" cx="16.5" cy="27.5" r="1.266" gradientUnits="userSpaceOnUse"><stop offset="0" stop-color="#1c1911"/><stop offset=".999" stop-color="#171714"/></radialGradient><circle cx="16.5" cy="27.5" r="1.266" fill="url(#qc9XrLlNy~fm2~as2ZuuIm)"/><path fill="#805b2a" d="M35.995,27.53c0.029,0.44-0.069,0.403-0.246,0.623c0,0-2.001,2.646-8.038,0.834c-0.436-0.149-0.751-0.433-0.706-0.773C27.779,22.353,35,23.065,35.995,27.53z"/><path fill="#fff" d="M35.904,27.484c0.151,0.309,0.103,0.557,0,0.806c-0.43,1.087-3.887,4.957-8.551,0.894c-0.348-0.287-0.403-0.54-0.317-0.898C27.122,27.928,28.331,25,31.497,25C34.632,25,35.642,27.063,35.904,27.484z"/><linearGradient id="qc9XrLlNy~fm2~as2ZuuIn" x1="15" x2="20" y1="27.5" y2="27.5" gradientTransform="translate(14)" gradientUnits="userSpaceOnUse"><stop offset="0" stop-color="#c69c6d"/><stop offset="1" stop-color="#754c24"/></linearGradient><circle cx="31.5" cy="27.5" r="2.5" fill="url(#qc9XrLlNy~fm2~as2ZuuIn)"/><radialGradient id="qc9XrLlNy~fm2~as2ZuuIo" cx="-664.5" cy="27.5" r="1.266" gradientTransform="matrix(-1 0 0 1 -633 0)" gradientUnits="userSpaceOnUse"><stop offset="0" stop-color="#1c1911"/><stop offset=".999" stop-color="#171714"/></radialGradient><circle cx="31.5" cy="27.5" r="1.266" fill="url(#qc9XrLlNy~fm2~as2ZuuIo)"/><circle cx="15.5" cy="26.5" r=".5" fill="#fff"/><circle cx="30.5" cy="26.5" r=".5" fill="#fff"/><radialGradient id="qc9XrLlNy~fm2~as2ZuuIp" cx="23.715" cy="16.12" r="12.47" gradientUnits="userSpaceOnUse"><stop offset="0" stop-color="#c69c6d"/><stop offset=".292" stop-color="#a77d51"/><stop offset=".577" stop-color="#8c6239"/><stop offset=".999" stop-color="#603813"/></radialGradient><path fill="url(#qc9XrLlNy~fm2~as2ZuuIp)" d="M41.104,15.583c0.479-0.396,0.681-1.065,0.646-1.646c-0.205-3.415-2.538-7.22-6.272-8.113c-0.201-0.048-0.403-0.108-0.607-0.177c0.505-1.071,0.195-2.102-1.4-2.012c-4.496,0.254-3.258-1.98-7.52-1.099C25.441,2.605,24.928,2.75,24.413,3c-3.256-1.813-6.248-0.187-8.741,1.234C14,5.188,12.712,5.18,11.344,5.25c-1.803,0.092-1.375,1.969-0.635,2.229c-2.083,0.958-3.823,3.332-4.188,4.208c-0.315,0.757,0.233,1.603,0.922,1.31c-0.537,0.815-0.818,1.347-0.818,2.628c-1.969,4.469,0.083,12.625,2.667,16.25c-1.042-5.042-0.667-7.292,0.155-9.719c3.678-10.24,10.182-7.096,10.555-6.615c2.581,3.333,5.686,2.198,7.623,0.917c0.336-0.223,6.708-5.875,10.763,5.198c0.577,1.576,0.987,5.906,0.518,10.063C41.606,27.966,41.542,17.5,41.104,15.583z"/><path fill="#805b2a" d="M13.592,22.088c0.472-0.19,0.899-0.319,1.354-0.446c0.449-0.123,0.902-0.228,1.358-0.321 c0.911-0.182,1.832-0.313,2.759-0.4l0.006-0.001c0.562-0.052,1.059,0.36,1.112,0.922s-0.36,1.059-0.922,1.112 c-0.064,0.006-0.134,0.005-0.196-0.001c-0.862-0.086-1.73-0.129-2.597-0.125c-0.433,0.004-0.867,0.019-1.299,0.052 c-0.424,0.033-0.875,0.084-1.258,0.156l-0.037,0.007c-0.271,0.051-0.533-0.127-0.584-0.399 C13.242,22.406,13.375,22.175,13.592,22.088z"/><path fill="#805b2a" d="M33.967,22.921c-0.399-0.052-0.852-0.084-1.283-0.102c-0.437-0.018-0.875-0.022-1.312-0.017 c-0.876,0.013-1.751,0.065-2.621,0.151c-0.561,0.055-1.061-0.355-1.116-0.916c-0.055-0.561,0.355-1.061,0.916-1.116 c0.064-0.006,0.138-0.005,0.2,0c0.922,0.086,1.84,0.209,2.75,0.371c0.455,0.083,0.908,0.175,1.359,0.281 c0.456,0.11,0.889,0.222,1.361,0.38c0.262,0.088,0.404,0.371,0.316,0.634c-0.077,0.231-0.307,0.368-0.539,0.338L33.967,22.921z"/><radialGradient id="qc9XrLlNy~fm2~as2ZuuIq" cx="23.723" cy="15.854" r="12.152" gradientUnits="userSpaceOnUse"><stop offset="0" stop-color="#c69c6d"/><stop offset=".292" stop-color="#a77d51"/><stop offset=".577" stop-color="#8c6239"/><stop offset=".999" stop-color="#603813"/></radialGradient><path fill="url(#qc9XrLlNy~fm2~as2ZuuIq)" d="M39.127,30.439c1.81-3.907,1.296-8.434,0.935-10.001c-1.437-6.25-6.044-8.75-8.562-9.406 c-1.958-0.51-3.438-0.24-4.375,0.719c-1.624,1.66-4.588,1.894-6.313-0.094c-1.127-1.299-2.708-0.865-4.062-0.469 c-2.493,0.729-7.656,3.594-8.938,9.219c-0.555,2.437-0.75,6,1.411,11.364c0.023,0.033,0.045,0.072,0.068,0.104 c-1.042-5.042-0.879-7.374,0.155-9.719c5.011-11.365,10.303-6.24,11.345-5.365c2.015,1.693,4.771,1.281,6.708,0 c0.336-0.222,6.594-6.979,10.888,4.865c0.572,1.578,1.112,4.781,0.643,8.938C39.065,30.546,39.094,30.488,39.127,30.439z"/><radialGradient id="qc9XrLlNy~fm2~as2ZuuIr" cx="23.717" cy="16.031" r="12.07" gradientUnits="userSpaceOnUse"><stop offset="0" stop-color="#c09667"/><stop offset=".279" stop-color="#a3794e"/><stop offset=".577" stop-color="#895f37"/><stop offset=".999" stop-color="#603813"/></radialGradient><path fill="url(#qc9XrLlNy~fm2~as2ZuuIr)" d="M16.589,11.434c-2.41,0.754-7.481,3.539-8.733,9.152c-0.542,2.428-0.715,5.95,1.375,11.213 c0.022,0.031,0.042,0.066,0.063,0.093c-0.985-4.766-0.896-7.231,0.174-9.703c1.713-3.959,3.53-5.938,5.249-6.802 c2.509-1.238,4.661,0.259,5.7,1.137c0.145,0.123,0.265,0.228,0.356,0.304c2.012,1.688,4.733,1.299,6.696,0.025 c0.1-0.065,0.518-0.479,1.148-0.928c1.612-1.148,4.392-2.325,7.076,0.805c0.931,1.083,1.847,2.667,2.674,4.932 c0.593,1.617,1.128,4.796,0.659,8.919c0.032-0.046,0.059-0.102,0.091-0.15c1.711-3.712,1.256-8.114,0.886-9.764 c-1.352-6.016-5.755-8.499-8.238-9.278c-2.001-0.628-3.503-0.384-4.48,0.55c-0.489,0.468-1.061,0.848-1.651,1.076 c-1.519,0.585-3.479,0.455-4.834-1.08C19.585,10.559,17.974,11.001,16.589,11.434z"/><radialGradient id="qc9XrLlNy~fm2~as2ZuuIs" cx="23.711" cy="16.202" r="11.99" gradientUnits="userSpaceOnUse"><stop offset="0" stop-color="#b99062"/><stop offset=".258" stop-color="#a1774c"/><stop offset=".577" stop-color="#875d34"/><stop offset=".999" stop-color="#603813"/></radialGradient><path fill="url(#qc9XrLlNy~fm2~as2ZuuIs)" d="M16.427,11.68c-2.328,0.775-7.306,3.484-8.529,9.085c-0.529,2.419-0.68,5.901,1.339,11.061 c0.02,0.029,0.039,0.06,0.058,0.082c-0.929-4.49-0.913-7.087,0.192-9.687c1.641-3.861,3.448-5.865,5.231-6.795 c2.43-1.228,4.565,0.183,5.676,1.132c0.143,0.123,0.263,0.227,0.356,0.305c2.009,1.684,4.697,1.32,6.683,0.05 c0.12-0.077,0.538-0.48,1.152-0.922c1.683-1.211,4.397-2.306,7.06,0.774c0.943,1.084,1.872,2.66,2.696,4.902 c0.613,1.656,1.144,4.811,0.676,8.9c0.031-0.044,0.056-0.098,0.086-0.144c1.611-3.517,1.216-7.793,0.836-9.526 c-1.27-5.781-5.467-8.254-7.913-9.15c-2.045-0.749-3.57-0.53-4.585,0.381c-0.529,0.475-1.117,0.885-1.695,1.117 c-1.472,0.586-3.499,0.603-4.962-1.03C19.485,10.762,17.843,11.208,16.427,11.68z"/><radialGradient id="qc9XrLlNy~fm2~as2ZuuIt" cx="23.704" cy="16.372" r="11.91" gradientUnits="userSpaceOnUse"><stop offset="0" stop-color="#b3895c"/><stop offset=".233" stop-color="#9e744a"/><stop offset=".577" stop-color="#845a32"/><stop offset=".999" stop-color="#603813"/></radialGradient><path fill="url(#qc9XrLlNy~fm2~as2ZuuIt)" d="M16.266,11.926c-2.246,0.793-7.13,3.429-8.324,9.018c-0.515,2.409-0.646,5.851,1.302,10.909 c0.019,0.027,0.035,0.054,0.052,0.071c-0.873-4.214-0.93-6.942,0.21-9.671c1.571-3.761,3.366-5.792,5.214-6.788 c2.352-1.218,4.469,0.106,5.653,1.127c0.142,0.122,0.262,0.227,0.357,0.307c2.006,1.68,4.664,1.344,6.67,0.075 c0.14-0.089,0.558-0.482,1.156-0.917c1.753-1.275,4.401-2.287,7.044,0.742c0.954,1.086,1.897,2.653,2.719,4.872 c0.634,1.695,1.16,4.825,0.692,8.882c0.029-0.043,0.053-0.094,0.082-0.139c1.511-3.321,1.176-7.473,0.786-9.288 c-1.192-5.544-5.179-8.014-7.588-9.022c-2.09-0.874-3.639-0.677-4.69,0.213c-0.568,0.481-1.173,0.922-1.74,1.158 c-1.424,0.587-3.518,0.751-5.089-0.98C19.384,10.964,17.713,11.415,16.266,11.926z"/><radialGradient id="qc9XrLlNy~fm2~as2ZuuIu" cx="23.698" cy="16.542" r="11.83" gradientUnits="userSpaceOnUse"><stop offset="0" stop-color="#ad8356"/><stop offset=".212" stop-color="#9b7247"/><stop offset=".577" stop-color="#815830"/><stop offset=".999" stop-color="#603813"/></radialGradient><path fill="url(#qc9XrLlNy~fm2~as2ZuuIu)" d="M16.104,12.172c-2.165,0.807-6.955,3.374-8.12,8.951c-0.502,2.4-0.611,5.802,1.266,10.757 c0.017,0.025,0.032,0.048,0.047,0.059c-0.816-3.938-0.945-6.797,0.228-9.655c1.503-3.661,3.283-5.719,5.196-6.781 c2.273-1.207,4.374,0.03,5.629,1.122c0.14,0.122,0.261,0.227,0.358,0.308c2.003,1.675,4.631,1.37,6.657,0.101 c0.16-0.1,0.577-0.484,1.159-0.911c1.823-1.339,4.399-2.262,7.027,0.711c0.964,1.09,1.918,2.648,2.741,4.843 c0.651,1.735,1.177,4.84,0.708,8.863c0.027-0.041,0.05-0.09,0.077-0.134c1.411-3.126,1.135-7.152,0.736-9.051 c-1.117-5.308-4.89-7.78-7.263-8.894c-2.134-1.002-3.708-0.825-4.795,0.044c-0.609,0.487-1.229,0.959-1.784,1.199 c-1.376,0.589-3.537,0.899-5.217-0.93C19.283,11.167,17.582,11.621,16.104,12.172z"/><radialGradient id="qc9XrLlNy~fm2~as2ZuuIv" cx="23.692" cy="16.711" r="11.751" gradientUnits="userSpaceOnUse"><stop offset="0" stop-color="#a67d51"/><stop offset=".18" stop-color="#986f45"/><stop offset=".577" stop-color="#7e552d"/><stop offset=".999" stop-color="#603813"/></radialGradient><path fill="url(#qc9XrLlNy~fm2~as2ZuuIv)" d="M15.943,12.418c-2.085,0.819-6.78,3.319-7.915,8.884c-0.489,2.391-0.576,5.752,1.23,10.606 c0.016,0.023,0.029,0.041,0.041,0.048c-0.76-3.662-0.96-6.652,0.247-9.64c1.438-3.56,3.201-5.646,5.179-6.774 c2.195-1.197,4.278-0.047,5.605,1.117c0.138,0.121,0.259,0.226,0.359,0.31c2,1.671,4.599,1.396,6.644,0.126 c0.18-0.112,0.597-0.486,1.163-0.905c1.893-1.403,4.402-2.242,7.011,0.679c0.975,1.092,1.943,2.641,2.764,4.813 c0.671,1.774,1.193,4.855,0.725,8.845c0.025-0.039,0.047-0.087,0.072-0.128c1.311-2.93,1.094-6.831,0.686-8.813 c-1.045-5.07-4.6-7.549-6.938-8.766c-2.178-1.133-3.779-0.974-4.9-0.125c-0.65,0.492-1.286,0.996-1.829,1.24 c-1.328,0.59-3.556,1.047-5.345-0.881C19.183,11.369,17.452,11.825,15.943,12.418z"/><radialGradient id="qc9XrLlNy~fm2~as2ZuuIw" cx="23.686" cy="16.88" r="11.671" gradientUnits="userSpaceOnUse"><stop offset="0" stop-color="#a0774b"/><stop offset=".151" stop-color="#966c42"/><stop offset=".577" stop-color="#7c522b"/><stop offset=".999" stop-color="#603813"/></radialGradient><path fill="url(#qc9XrLlNy~fm2~as2ZuuIw)" d="M15.781,12.664c-2.005,0.828-6.605,3.264-7.711,8.817 c-0.476,2.382-0.541,5.702,1.194,10.454c0.014,0.021,0.026,0.035,0.036,0.037c-0.703-3.386-0.974-6.506,0.265-9.624 c1.374-3.458,3.119-5.573,5.161-6.767c2.117-1.187,4.183-0.125,5.581,1.112c0.137,0.121,0.258,0.226,0.36,0.311 c1.996,1.667,4.567,1.424,6.631,0.151c0.2-0.123,0.616-0.488,1.166-0.899c1.962-1.468,4.406-2.223,6.995,0.648 c0.987,1.094,1.968,2.634,2.787,4.783c0.691,1.813,1.209,4.87,0.741,8.826c0.024-0.038,0.044-0.083,0.067-0.123 c1.211-2.735,1.053-6.511,0.636-8.576c-0.975-4.832-4.308-7.322-6.613-8.637c-2.22-1.267-3.851-1.124-5.006-0.293 c-0.691,0.497-1.342,1.032-1.873,1.281c-1.28,0.591-3.576,1.195-5.473-0.831C19.082,11.572,17.321,12.028,15.781,12.664z"/><radialGradient id="qc9XrLlNy~fm2~as2ZuuIx" cx="23.68" cy="17.048" r="11.593" gradientUnits="userSpaceOnUse"><stop offset="0" stop-color="#997046"/><stop offset=".091" stop-color="#936a41"/><stop offset=".577" stop-color="#795028"/><stop offset=".999" stop-color="#603813"/></radialGradient><path fill="url(#qc9XrLlNy~fm2~as2ZuuIx)" d="M15.62,12.91c-1.927,0.835-6.429,3.209-7.506,8.75c-0.462,2.372-0.506,5.653,1.158,10.302 c0.013,0.019,0.023,0.029,0.031,0.025c-0.647-3.11-0.987-6.36,0.283-9.608c1.312-3.355,3.037-5.501,5.144-6.76 c2.038-1.176,4.088-0.202,5.558,1.107c0.135,0.12,0.256,0.226,0.36,0.312c1.993,1.662,4.536,1.452,6.619,0.176 c0.22-0.135,0.636-0.49,1.17-0.894c2.032-1.534,4.41-2.204,6.979,0.616c0.998,1.096,1.993,2.627,2.809,4.753 c0.711,1.852,1.225,4.884,0.757,8.808c0.022-0.036,0.041-0.079,0.062-0.118c1.111-2.539,1.011-6.19,0.586-8.338 c-0.908-4.593-4.015-7.097-6.288-8.509c-2.261-1.404-3.923-1.275-5.111-0.462c-0.733,0.502-1.398,1.069-1.918,1.321 c-1.232,0.593-3.595,1.343-5.6-0.781C18.982,11.774,17.189,12.23,15.62,12.91z"/><radialGradient id="qc9XrLlNy~fm2~as2ZuuIy" cx="23.673" cy="17.217" r="11.515" gradientUnits="userSpaceOnUse"><stop offset="0" stop-color="#936a40"/><stop offset=".046" stop-color="#90673e"/><stop offset=".577" stop-color="#764d26"/><stop offset=".999" stop-color="#603813"/></radialGradient><path fill="url(#qc9XrLlNy~fm2~as2ZuuIy)" d="M15.458,13.156c-1.849,0.84-6.254,3.154-7.302,8.683c-0.449,2.363-0.471,5.603,1.122,10.15 c0.012,0.017,0.019,0.023,0.025,0.014c-0.591-2.835-0.998-6.214,0.302-9.592c1.251-3.252,2.955-5.428,5.126-6.753 c1.96-1.166,3.994-0.28,5.534,1.102c0.133,0.12,0.255,0.225,0.361,0.314c1.99,1.658,4.504,1.48,6.606,0.201 c0.24-0.146,0.655-0.493,1.174-0.888c2.1-1.599,4.414-2.185,6.963,0.585c1.01,1.098,2.018,2.62,2.832,4.723 c0.732,1.891,1.241,4.899,0.774,8.789c0.02-0.034,0.038-0.075,0.058-0.112c1.011-2.344,0.968-5.868,0.536-8.1 c-0.842-4.354-3.72-6.876-5.964-8.381c-2.3-1.543-3.996-1.427-5.216-0.631c-0.775,0.506-1.454,1.106-1.962,1.362 c-1.185,0.594-3.614,1.491-5.728-0.731C18.881,11.977,17.057,12.43,15.458,13.156z"/><radialGradient id="qc9XrLlNy~fm2~as2ZuuIz" cx="23.666" cy="17.386" r="11.438" gradientUnits="userSpaceOnUse"><stop offset="0" stop-color="#8d643a"/><stop offset=".577" stop-color="#734a24"/><stop offset=".999" stop-color="#603813"/></radialGradient><path fill="url(#qc9XrLlNy~fm2~as2ZuuIz)" d="M15.297,13.402c-1.772,0.842-6.079,3.099-7.097,8.616c-0.436,2.354-0.437,5.554,1.085,9.999 c0.01,0.014,0.016,0.017,0.02,0.003c-0.534-2.559-1.008-6.066,0.32-9.576c1.191-3.148,2.872-5.355,5.109-6.746 c1.882-1.156,3.9-0.359,5.51,1.097c0.132,0.119,0.254,0.225,0.362,0.315c1.987,1.654,4.474,1.508,6.593,0.226 c0.261-0.158,0.674-0.495,1.177-0.882c2.168-1.666,4.419-2.166,6.947,0.553c1.022,1.099,2.043,2.612,2.854,4.693 c0.752,1.93,1.258,4.914,0.79,8.77c0.019-0.033,0.035-0.071,0.053-0.107c0.911-2.149,0.924-5.547,0.486-7.863 c-0.779-4.115-3.424-6.656-5.639-8.253c-2.338-1.685-4.069-1.579-5.321-0.799c-0.817,0.509-1.511,1.143-2.007,1.403 c-1.137,0.595-3.633,1.639-5.856-0.682C18.781,12.179,16.925,12.629,15.297,13.402z"/><radialGradient id="qc9XrLlNy~fm2~as2ZuuIA" cx="23.66" cy="17.554" r="11.362" gradientUnits="userSpaceOnUse"><stop offset="0" stop-color="#865e35"/><stop offset=".577" stop-color="#714821"/><stop offset=".999" stop-color="#603813"/></radialGradient><path fill="url(#qc9XrLlNy~fm2~as2ZuuIA)" d="M15.135,13.648c-1.696,0.843-5.903,3.044-6.893,8.549c-0.423,2.345-0.402,5.504,1.049,9.847 c0.009,0.012,0.013,0.011,0.015-0.009c-0.478-2.283-1.017-5.919,0.338-9.561c1.133-3.044,2.79-5.282,5.091-6.739 c1.803-1.145,3.806-0.437,5.486,1.092c0.13,0.119,0.252,0.225,0.363,0.317c1.984,1.649,4.443,1.537,6.58,0.251 c0.281-0.169,0.693-0.498,1.181-0.876c2.236-1.733,4.424-2.147,6.93,0.522c1.034,1.101,2.069,2.605,2.877,4.664 c0.773,1.969,1.274,4.929,0.806,8.752c0.017-0.031,0.032-0.067,0.048-0.101c0.811-1.953,0.88-5.226,0.436-7.625 c-0.716-3.875-3.125-6.438-5.314-8.125c-2.373-1.829-4.143-1.732-5.426-0.968c-0.86,0.512-1.567,1.18-2.051,1.444 c-1.089,0.596-3.653,1.787-5.984-0.632C18.68,12.382,16.791,12.825,15.135,13.648z"/><radialGradient id="qc9XrLlNy~fm2~as2ZuuIB" cx="23.653" cy="17.723" r="11.286" gradientUnits="userSpaceOnUse"><stop offset="0" stop-color="#80572f"/><stop offset=".577" stop-color="#6e451f"/><stop offset=".999" stop-color="#603813"/></radialGradient><path fill="url(#qc9XrLlNy~fm2~as2ZuuIB)" d="M14.974,13.895c-1.621,0.842-5.728,2.989-6.688,8.482c-0.409,2.335-0.367,5.454,1.013,9.695 c0.007,0.01,0.01,0.005,0.009-0.02c-0.422-2.007-1.024-5.771,0.356-9.545c1.075-2.939,2.708-5.209,5.074-6.732 c1.725-1.135,3.712-0.516,5.463,1.087c0.129,0.118,0.251,0.225,0.364,0.318c1.981,1.645,4.412,1.566,6.567,0.276 c0.301-0.18,0.711-0.501,1.184-0.871c2.303-1.801,4.429-2.129,6.914,0.491c1.046,1.102,2.095,2.598,2.9,4.634 c0.794,2.008,1.29,4.943,0.823,8.733c0.015-0.029,0.028-0.064,0.043-0.096c0.711-1.758,0.834-4.904,0.386-7.388 c-0.656-3.636-2.825-6.221-4.989-7.997c-2.406-1.975-4.217-1.886-5.531-1.137c-0.903,0.515-1.623,1.216-2.096,1.485 c-1.041,0.598-3.672,1.935-6.111-0.582C18.58,12.584,16.657,13.02,14.974,13.895z"/><radialGradient id="qc9XrLlNy~fm2~as2ZuuIC" cx="23.645" cy="17.89" r="11.211" gradientUnits="userSpaceOnUse"><stop offset="0" stop-color="#7a5129"/><stop offset=".577" stop-color="#6b431c"/><stop offset=".999" stop-color="#603813"/></radialGradient><path fill="url(#qc9XrLlNy~fm2~as2ZuuIC)" d="M14.812,14.141c-1.546,0.84-5.553,2.934-6.484,8.415c-0.396,2.326-0.332,5.405,0.977,9.544 c0.006,0.008,0.006-0.002,0.004-0.031c-0.365-1.731-1.03-5.622,0.375-9.529c1.019-2.835,2.626-5.136,5.056-6.726 c1.647-1.125,3.619-0.596,5.439,1.082c0.127,0.117,0.249,0.224,0.364,0.32c1.978,1.641,4.381,1.595,6.554,0.302 c0.322-0.191,0.73-0.504,1.188-0.865c2.37-1.869,4.434-2.111,6.898,0.459c1.058,1.104,2.124,2.589,2.922,4.604 c0.819,2.045,1.306,4.958,0.839,8.715c0.013-0.028,0.025-0.06,0.039-0.091c0.611-1.562,0.787-4.582,0.336-7.15 c-0.596-3.395-2.524-6.005-4.664-7.869c-2.437-2.122-4.291-2.04-5.636-1.306c-0.946,0.516-1.679,1.253-2.14,1.525 c-0.993,0.599-3.691,2.083-6.239-0.532C18.479,12.787,16.521,13.213,14.812,14.141z"/><radialGradient id="qc9XrLlNy~fm2~as2ZuuID" cx="23.638" cy="18.058" r="11.137" gradientUnits="userSpaceOnUse"><stop offset="0" stop-color="#734b24"/><stop offset=".577" stop-color="#68401a"/><stop offset=".999" stop-color="#603813"/></radialGradient><path fill="url(#qc9XrLlNy~fm2~as2ZuuID)" d="M14.651,14.387c-1.473,0.837-5.378,2.879-6.279,8.348c-0.383,2.317-0.297,5.355,0.941,9.392 c0.004,0.006,0.003-0.008-0.002-0.043c-0.309-1.455-1.033-5.472,0.393-9.513c0.963-2.73,2.544-5.063,5.039-6.719 c1.568-1.114,3.526-0.675,5.415,1.077c0.126,0.117,0.248,0.224,0.365,0.321c1.975,1.636,4.351,1.625,6.542,0.327 c0.342-0.203,0.749-0.507,1.192-0.859c2.436-1.938,4.44-2.093,6.882,0.428c1.07,1.105,2.149,2.582,2.945,4.574 c0.839,2.084,1.322,4.973,0.855,8.696c0.012-0.026,0.022-0.056,0.034-0.085c0.511-1.367,0.739-4.26,0.287-6.912 c-0.538-3.155-2.221-5.79-4.339-7.74c-2.466-2.27-4.365-2.195-5.741-1.474c-0.989,0.518-1.735,1.29-2.185,1.566 c-0.946,0.6-3.71,2.231-6.367-0.483C18.379,12.989,16.383,13.403,14.651,14.387z"/><radialGradient id="qc9XrLlNy~fm2~as2ZuuIE" cx="23.63" cy="18.224" r="11.063" gradientUnits="userSpaceOnUse"><stop offset="0" stop-color="#6d451e"/><stop offset=".577" stop-color="#663d18"/><stop offset=".999" stop-color="#603813"/></radialGradient><path fill="url(#qc9XrLlNy~fm2~as2ZuuIE)" d="M14.49,14.633c-1.401,0.832-5.202,2.824-6.075,8.281c-0.369,2.308-0.263,5.306,0.905,9.24 c0.003,0.004,0-0.014-0.007-0.054c-0.253-1.179-1.034-5.322,0.411-9.497c0.908-2.625,2.461-4.99,5.021-6.712 c1.49-1.104,3.434-0.755,5.391,1.072c0.124,0.116,0.247,0.224,0.366,0.322c1.972,1.632,4.32,1.654,6.529,0.352 c0.362-0.214,0.768-0.51,1.195-0.853c2.501-2.009,4.45-2.079,6.866,0.396c1.084,1.105,2.175,2.575,2.967,4.544 c0.86,2.123,1.338,4.988,0.871,8.678c0.01-0.025,0.019-0.052,0.029-0.08c0.411-1.171,0.688-3.938,0.237-6.675 c-0.48-2.915-1.916-5.576-4.015-7.612c-2.493-2.42-4.439-2.351-5.846-1.643c-1.032,0.519-1.792,1.327-2.229,1.607 c-0.898,0.602-3.73,2.379-6.495-0.433C18.278,13.191,16.244,13.591,14.49,14.633z"/><radialGradient id="qc9XrLlNy~fm2~as2ZuuIF" cx="23.622" cy="18.39" r="10.989" gradientUnits="userSpaceOnUse"><stop offset="0" stop-color="#663e19"/><stop offset=".577" stop-color="#633b15"/><stop offset=".999" stop-color="#603813"/></radialGradient><path fill="url(#qc9XrLlNy~fm2~as2ZuuIF)" d="M14.328,14.879c-1.33,0.827-5.027,2.769-5.87,8.214c-0.356,2.298-0.228,5.256,0.868,9.088 c0.001,0.002-0.003-0.02-0.012-0.065c-0.196-0.903-1.032-5.171,0.43-9.481c0.854-2.519,2.379-4.917,5.004-6.705 c1.412-1.094,3.344-0.838,5.368,1.067c0.123,0.115,0.245,0.223,0.367,0.324c1.968,1.628,4.292,1.686,6.516,0.377 c0.383-0.224,0.786-0.513,1.199-0.848c2.566-2.079,4.454-2.061,6.85,0.365c1.096,1.106,2.2,2.568,2.99,4.514 c0.88,2.161,1.355,5.002,0.888,8.659c0.008-0.023,0.016-0.048,0.024-0.075c0.311-0.976,0.634-3.615,0.187-6.437 c-0.424-2.675-1.61-5.361-3.69-7.484c-2.518-2.571-4.513-2.506-5.951-1.812c-1.076,0.519-1.848,1.364-2.274,1.648 c-0.85,0.603-3.749,2.527-6.622-0.383C18.178,13.394,16.102,13.776,14.328,14.879z"/><path fill="#603813" d="M9.333,32.208c0,0-2.625-10.698,5.417-16.24c1.333-1.083,3.25-0.917,5.344,1.063 c2.389,2.258,5.323,2.135,8.073-0.115c2.63-2.151,4.458-2.042,6.833,0.333s4.792,6.333,3.917,13.125 c0.375-1.25,1.396-8.693-3.208-13.625c-4.476-4.795-7.417-0.958-8.375-0.292c-0.802,0.604-3.768,2.675-6.75-0.333 c-2.506-2.529-4.625-2.167-6.417-1S5.875,19.625,9.333,32.208z"/><g><path fill="#f5bd24" d="M9.281,31.719c0.052-3.969-0.26-8.885,5.448-13.76c1.318-1.071,3.416-0.936,5.486,1.021 c2.361,2.232,5.296,2.391,8.014,0.167c2.599-2.127,4.135-2.323,6.167-0.417c2.421,2.272,4.396,5.396,4.573,11.708 c0.371-1.236,0.594-8.408-3.25-12.563c-4.404-4.759-7.303-0.971-8.25-0.313c-0.793,0.597-3.928,2.505-6.875-0.469 c-2.477-2.499-4.229-2.153-6-1S6.531,22.406,9.281,31.719z"/><path fill="#e5af22" d="M9.281,31.719c0.047-3.608-0.455-8.969,5.457-13.899c1.367-1.087,3.423-0.935,5.493,1.021 c2.361,2.232,5.269,2.399,7.983,0.171c2.632-2.162,4.186-2.301,6.246-0.354c2.414,2.279,4.37,5.533,4.503,11.888 c0.371-1.236,0.661-8.47-3.247-12.69c-4.406-4.757-7.305-0.969-8.253-0.31c-0.793,0.597-3.909,2.518-6.857-0.456 c-2.477-2.499-4.248-2.163-6.019-1.009S6.531,22.406,9.281,31.719z"/><path fill="#d4a11f" d="M9.281,31.719c0.043-3.247-0.649-9.052,5.467-14.037c1.415-1.103,3.43-0.935,5.5,1.021 c2.361,2.232,5.241,2.408,7.951,0.174c2.664-2.198,4.237-2.278,6.326-0.292c2.407,2.286,4.345,5.67,4.433,12.068 c0.371-1.236,0.728-8.533-3.244-12.818c-4.407-4.755-7.308-0.967-8.255-0.308c-0.793,0.597-3.891,2.53-6.838-0.443 c-2.477-2.499-4.267-2.172-6.037-1.019S6.531,22.406,9.281,31.719z"/><path fill="#c4921d" d="M9.281,31.719c0.038-2.886-0.843-9.136,5.476-14.175c1.464-1.12,3.437-0.935,5.507,1.021 c2.361,2.232,5.214,2.417,7.919,0.178c2.697-2.234,4.288-2.256,6.405-0.229c2.401,2.292,4.319,5.808,4.363,12.248 c0.371-1.236,0.795-8.595-3.242-12.945c-4.409-4.754-7.31-0.965-8.258-0.306c-0.793,0.597-3.872,2.543-6.82-0.431 c-2.477-2.499-4.285-2.181-6.056-1.028S6.531,22.406,9.281,31.719z"/><path fill="#b4841b" d="M9.281,31.719c0.033-2.526-1.037-9.219,5.486-14.313c1.513-1.136,3.444-0.935,5.514,1.021 c2.361,2.232,5.186,2.425,7.888,0.182c2.73-2.27,4.339-2.233,6.485-0.167c2.394,2.299,4.294,5.945,4.293,12.428 c0.371-1.236,0.862-8.657-3.239-13.073c-4.411-4.752-7.313-0.963-8.26-0.304c-0.793,0.597-3.854,2.556-6.801-0.418 c-2.477-2.499-4.304-2.191-6.075-1.037S6.531,22.406,9.281,31.719z"/><path fill="#a47619" d="M9.281,31.719c0.028-2.165-1.231-9.303,5.495-14.452c1.562-1.152,3.451-0.935,5.521,1.021 c2.361,2.232,5.159,2.434,7.856,0.186c2.762-2.306,4.389-2.211,6.564-0.104c2.387,2.306,4.268,6.082,4.223,12.608 c0.371-1.236,0.93-8.719-3.236-13.201c-4.413-4.75-7.315-0.96-8.263-0.301c-0.793,0.597-3.835,2.568-6.783-0.405 c-2.477-2.499-4.323-2.2-6.094-1.047C12.794,17.176,6.531,22.406,9.281,31.719z"/><path fill="#936816" d="M9.281,31.719c0.024-1.804-1.425-9.386,5.505-14.59c1.61-1.169,3.458-0.935,5.528,1.021 c2.361,2.232,5.131,2.443,7.825,0.189c2.795-2.342,4.44-2.189,6.644-0.042c2.381,2.313,4.242,6.22,4.152,12.788 c0.371-1.236,0.997-8.781-3.233-13.328c-4.415-4.748-7.318-0.958-8.265-0.299c-0.793,0.597-3.817,2.581-6.764-0.393 c-2.477-2.499-4.342-2.209-6.112-1.056S6.531,22.406,9.281,31.719z"/><path fill="#835a14" d="M9.281,31.719c0.019-1.443-1.62-9.47,5.514-14.728c1.659-1.185,3.465-0.935,5.535,1.021 c2.361,2.232,5.104,2.451,7.793,0.193c2.828-2.377,4.491-2.166,6.723,0.021c2.374,2.32,4.217,6.357,4.082,12.968 c0.371-1.236,1.064-8.843-3.23-13.456c-4.417-4.747-7.321-0.956-8.268-0.297c-0.793,0.597-3.798,2.594-6.746-0.38 c-2.477-2.499-4.36-2.219-6.131-1.066C12.783,17.147,6.531,22.406,9.281,31.719z"/><path fill="#734c12" d="M9.281,31.719c0.014-1.082-1.814-9.553,5.524-14.866c1.708-1.201,3.472-0.935,5.542,1.021 c2.361,2.232,5.076,2.46,7.761,0.197c2.86-2.413,4.542-2.144,6.803,0.083c2.367,2.327,4.191,6.494,4.012,13.148 c0.371-1.236,1.131-8.905-3.227-13.584c-4.419-4.745-7.323-0.954-8.27-0.295c-0.793,0.597-3.78,2.606-6.727-0.367 c-2.477-2.499-4.379-2.228-6.15-1.075C12.777,17.133,6.531,22.406,9.281,31.719z"/><path fill="#633d10" d="M9.281,31.719c0.009-0.722-2.008-9.637,5.533-15.005c1.757-1.217,3.479-0.935,5.549,1.021 c2.361,2.232,5.049,2.469,7.73,0.201c2.893-2.449,4.593-2.121,6.883,0.146c2.361,2.334,4.166,6.632,3.942,13.328 c0.371-1.236,1.198-8.967-3.225-13.711c-4.421-4.743-7.326-0.952-8.273-0.293c-0.793,0.597-3.761,2.619-6.709-0.355 c-2.477-2.499-4.398-2.237-6.169-1.084S6.531,22.406,9.281,31.719z"/><path fill="#522f0d" d="M9.281,31.719c0.005-0.361-2.202-9.72,5.543-15.143c1.805-1.234,3.486-0.935,5.556,1.021 c2.361,2.232,5.021,2.477,7.698,0.205c2.926-2.485,4.643-2.099,6.962,0.208c2.354,2.341,4.14,6.769,3.872,13.508 c0.371-1.236,1.265-9.029-3.222-13.839c-4.423-4.741-7.328-0.949-8.275-0.29c-0.793,0.597-3.743,2.632-6.69-0.342 c-2.477-2.499-4.417-2.247-6.187-1.094S6.531,22.406,9.281,31.719z"/><path fill="#42210b" d="M9.281,31.719c0,0-2.396-9.804,5.552-15.281c1.854-1.25,3.493-0.935,5.563,1.021 c2.361,2.232,4.994,2.486,7.667,0.208c2.958-2.521,4.694-2.077,7.042,0.271s4.115,6.906,3.802,13.688 c0.371-1.236,1.332-9.092-3.219-13.967c-4.425-4.74-7.331-0.947-8.278-0.288c-0.793,0.597-3.724,2.644-6.672-0.329 c-2.477-2.499-4.435-2.256-6.206-1.103S6.531,22.406,9.281,31.719z"/></g></svg>