<svg xmlns="http://www.w3.org/2000/svg" xmlns:xlink="http://www.w3.org/1999/xlink" viewBox="0 0 80 80" fill="#EBCC30">
  <path d="M38.726563 9C33.996094 9 30.257813 10.882813 27.765625 13.675781C25.273438 16.472656 24 20.140625 24 23.75C24 26.996094 24.714844 30.707031 24.929688 31.757813C24.363281 32.265625 24 32.988281 24 33.800781C24 34.449219 24.195313 35.003906 24.355469 35.546875C24.433594 35.820313 24.511719 36.074219 24.5625 36.265625C24.613281 36.457031 24.625 36.644531 24.625 36.5C24.625 37.859375 25.765625 38.921875 27.109375 38.96875C27.292969 42.84375 29.160156 46.265625 32 48.519531L32 52.25C30.558594 52.6875 27.097656 53.804688 23.574219 55.46875C21.273438 56.554688 18.960938 57.863281 17.160156 59.414063C15.359375 60.964844 14 62.820313 14 65L14 71L66 71L66 65C66 62.820313 64.640625 60.964844 62.839844 59.414063C61.039063 57.863281 58.726563 56.554688 56.425781 55.46875C52.902344 53.804688 49.441406 52.6875 48 52.25L48 48.523438C50.839844 46.269531 52.707031 42.847656 52.890625 38.96875C54.234375 38.921875 55.375 37.859375 55.375 36.5C55.375 36.644531 55.386719 36.457031 55.4375 36.265625C55.488281 36.074219 55.566406 35.820313 55.644531 35.546875C55.804688 35.003906 56 34.449219 56 33.800781C56 32.980469 55.628906 32.257813 55.058594 31.746094C55.242188 30.691406 56 26.175781 56 23C56 19.40625 54.65625 16.832031 52.84375 15.234375C51.214844 13.804688 49.300781 13.230469 47.605469 13.109375C47.332031 12.675781 46.847656 11.996094 45.84375 11.210938C44.402344 10.089844 42.089844 9 38.726563 9 Z M 38.726563 11C41.664063 11 43.488281 11.910156 44.609375 12.789063C45.734375 13.667969 46.105469 14.441406 46.105469 14.441406L46.378906 15L47 15C48.332031 15 50.125 15.507813 51.519531 16.738281C52.917969 17.96875 54 19.890625 54 23C54 25.789063 53.335938 29.859375 53.140625 31C53.136719 31 53.132813 31 53.125 31C53.039063 31 53.054688 31.019531 53 31.027344L53 28C53 24.578125 51.601563 22.277344 50.195313 20.914063C48.789063 19.550781 47.316406 19.050781 47.316406 19.050781L46.746094 18.859375L46.308594 19.277344C46.308594 19.277344 45.679688 19.894531 44.160156 20.589844C42.640625 21.285156 40.289063 22 37 22C35.199219 22 32.828125 22.636719 30.769531 24.074219C28.71875 25.507813 27.011719 27.851563 27.003906 31.03125C26.949219 31.023438 26.960938 31 26.875 31C26.859375 31 26.839844 31.003906 26.824219 31.003906C26.546875 29.542969 26 26.3125 26 23.75C26 20.613281 27.121094 17.402344 29.257813 15.011719C31.394531 12.617188 34.519531 11 38.726563 11 Z M 47 21.15625C47.242188 21.25 47.875 21.449219 48.804688 22.347656C49.898438 23.410156 51 25.105469 51 28L51 34.304688L52.503906 33.421875C52.761719 33.273438 53 33.140625 53.167969 33.054688C53.1875 33.042969 53.195313 33.042969 53.214844 33.03125C53.671875 33.078125 54 33.398438 54 33.796875L54 33.800781C54 33.875 53.878906 34.460938 53.726563 34.984375C53.648438 35.242188 53.570313 35.503906 53.503906 35.742188C53.441406 35.980469 53.375 36.148438 53.375 36.5C53.375 36.765625 53.15625 37 52.8125 37L51 37L51 38.367188C51 43.789063 47.089844 48.269531 41.941406 49.1875L41.65625 49.234375L41.441406 49.433594C41.050781 49.789063 40.558594 50 40 50C39.441406 50 38.949219 49.789063 38.558594 49.433594L38.34375 49.234375L38.058594 49.1875C32.910156 48.269531 29 43.789063 29 38.367188L29 37L27.1875 37C26.84375 37 26.625 36.765625 26.625 36.5C26.625 36.148438 26.558594 35.980469 26.492188 35.742188C26.425781 35.503906 26.347656 35.242188 26.269531 34.984375C26.117188 34.460938 26 33.875 26 33.800781C26 33.398438 26.328125 33.078125 26.785156 33.03125C26.804688 33.042969 26.8125 33.042969 26.832031 33.054688C27 33.140625 27.238281 33.273438 27.496094 33.421875L29 34.304688L29 31.050781C29 28.558594 30.242188 26.882813 31.914063 25.714844C33.585938 24.546875 35.710938 24 37 24C40.582031 24 43.230469 23.214844 44.992188 22.410156C46.300781 21.8125 46.644531 21.445313 47 21.15625 Z M 34.5 33C33.671875 33 33 33.671875 33 34.5C33 35.328125 33.671875 36 34.5 36C35.328125 36 36 35.328125 36 34.5C36 33.671875 35.328125 33 34.5 33 Z M 45.5 33C44.671875 33 44 33.671875 44 34.5C44 35.328125 44.671875 36 45.5 36C46.328125 36 47 35.328125 47 34.5C47 33.671875 46.328125 33 45.5 33 Z M 34 49.824219C35.066406 50.382813 36.21875 50.8125 37.441406 51.058594C38.148438 51.621094 39.023438 52 40 52C40.972656 52 41.84375 51.621094 42.546875 51.0625C43.773438 50.820313 44.929688 50.390625 46 49.828125L46 54C46 54.359375 45.71875 55.015625 45.136719 55.722656C44.550781 56.433594 43.722656 57.175781 42.882813 57.839844C41.425781 58.984375 40.316406 59.613281 39.953125 59.828125C39.589844 59.664063 38.507813 59.203125 37.082031 58.1875C35.433594 57.007813 34 55.417969 34 54 Z M 32.03125 54.34375C32.210938 56.75 34.148438 58.550781 35.917969 59.8125C37.769531 61.136719 39.605469 61.921875 39.605469 61.921875L40.0625 62.113281L40.496094 61.871094C40.496094 61.871094 42.296875 60.839844 44.117188 59.410156C45.027344 58.699219 45.949219 57.878906 46.675781 56.996094C47.332031 56.199219 47.871094 55.335938 47.976563 54.34375C49.578125 54.847656 52.535156 55.84375 55.574219 57.28125C57.773438 58.320313 59.960938 59.574219 61.535156 60.929688C63.109375 62.285156 64 63.679688 64 65L64 69L16 69L16 65C16 63.679688 16.890625 62.285156 18.464844 60.929688C20.039063 59.574219 22.226563 58.320313 24.425781 57.28125C27.472656 55.84375 30.433594 54.847656 32.03125 54.34375 Z M 20 65C19.449219 65 19 65.449219 19 66C19 66.550781 19.449219 67 20 67C20.550781 67 21 66.550781 21 66C21 65.449219 20.550781 65 20 65 Z M 24 65C23.449219 65 23 65.449219 23 66C23 66.550781 23.449219 67 24 67C24.550781 67 25 66.550781 25 66C25 65.449219 24.550781 65 24 65 Z M 28 65C27.449219 65 27 65.449219 27 66C27 66.550781 27.449219 67 28 67C28.550781 67 29 66.550781 29 66C29 65.449219 28.550781 65 28 65 Z M 32 65C31.449219 65 31 65.449219 31 66C31 66.550781 31.449219 67 32 67C32.550781 67 33 66.550781 33 66C33 65.449219 32.550781 65 32 65 Z M 36 65C35.449219 65 35 65.449219 35 66C35 66.550781 35.449219 67 36 67C36.550781 67 37 66.550781 37 66C37 65.449219 36.550781 65 36 65 Z M 40 65C39.449219 65 39 65.449219 39 66C39 66.550781 39.449219 67 40 67C40.550781 67 41 66.550781 41 66C41 65.449219 40.550781 65 40 65 Z M 44 65C43.449219 65 43 65.449219 43 66C43 66.550781 43.449219 67 44 67C44.550781 67 45 66.550781 45 66C45 65.449219 44.550781 65 44 65 Z M 48 65C47.449219 65 47 65.449219 47 66C47 66.550781 47.449219 67 48 67C48.550781 67 49 66.550781 49 66C49 65.449219 48.550781 65 48 65 Z M 52 65C51.449219 65 51 65.449219 51 66C51 66.550781 51.449219 67 52 67C52.550781 67 53 66.550781 53 66C53 65.449219 52.550781 65 52 65 Z M 56 65C55.449219 65 55 65.449219 55 66C55 66.550781 55.449219 67 56 67C56.550781 67 57 66.550781 57 66C57 65.449219 56.550781 65 56 65 Z M 60 65C59.449219 65 59 65.449219 59 66C59 66.550781 59.449219 67 60 67C60.550781 67 61 66.550781 61 66C61 65.449219 60.550781 65 60 65Z" fill="#EBCC30" />
</svg>